<svg width="119" height="11" viewBox="0 0 119 11" fill="none" xmlns="http://www.w3.org/2000/svg">
<path d="M0 10.5V0H9V1.5H10.5V6H9V7.5H3V10.5H0ZM3 6H7.5V1.5H3V6ZM12 10.5V3H13.5V1.5H15V0H19.5V1.5H21V3H22.5V10.5H19.5V7.5H15V10.5H12ZM15 6H19.5V3H18V1.5H16.5V3H15V6ZM24 10.5V0H33V1.5H34.5V6H31.5V7.5H33V9H34.5V10.5H30V9H28.5V7.5H27V10.5H24ZM27 6H30V4.5H31.5V1.5H27V6ZM36 10.5V3H37.5V1.5H39V0H43.5V1.5H45V3H46.5V10.5H43.5V7.5H39V10.5H36ZM39 6H43.5V3H42V1.5H40.5V3H39V6ZM51 10.5V9H49.5V7.5H48V3H49.5V1.5H51V0H57V1.5H58.5V3H55.5V1.5H52.5V3H51V7.5H52.5V9H55.5V7.5H58.5V9H57V10.5H51ZM61.5 10.5V9H60V1.5H61.5V0H69V1.5H70.5V9H69V10.5H61.5ZM63 9H67.5V1.5H63V9ZM72 10.5V0H81V1.5H82.5V6H79.5V7.5H81V9H82.5V10.5H78V9H76.5V7.5H75V10.5H72ZM75 6H78V4.5H79.5V1.5H75V6ZM84 10.5V0H91.5V1.5H93V3H94.5V7.5H93V9H91.5V10.5H84ZM87 9H90V7.5H91.5V3H90V1.5H87V9ZM108 10.5V7.5H109.5V6H111V4.5H112.5V3H114V1.5H108V0H118.5V3H117V4.5H115.5V6H114V7.5H112.5V9H118.5V10.5H108Z" fill="#242424"/>
</svg>
